<svg xmlns="http://www.w3.org/2000/svg" xmlns:xlink="http://www.w3.org/1999/xlink" width="500" zoomAndPan="magnify" viewBox="0 0 375 374.999991" height="500" preserveAspectRatio="xMidYMid meet" version="1.0"><defs><g/><clipPath id="c3edf42f67"><path d="M 11 128 L 109.597656 128 L 109.597656 227 L 11 227 Z M 11 128 " clip-rule="nonzero"/></clipPath><clipPath id="90f990d89a"><path d="M 6.234375 129.496094 L 23 129.496094 L 23 147.660156 L 6.234375 147.660156 Z M 6.234375 129.496094 " clip-rule="nonzero"/></clipPath><clipPath id="26730957d7"><path d="M 19 123.660156 L 34.707031 123.660156 L 34.707031 131 L 19 131 Z M 19 123.660156 " clip-rule="nonzero"/></clipPath><clipPath id="c27d88b67d"><path d="M 23.753906 129.496094 L 34.707031 129.496094 L 34.707031 147.660156 L 23.753906 147.660156 Z M 23.753906 129.496094 " clip-rule="nonzero"/></clipPath><clipPath id="a727a242c6"><path d="M 81.3125 130 L 98 130 L 98 148.035156 L 81.3125 148.035156 Z M 81.3125 130 " clip-rule="nonzero"/></clipPath><clipPath id="a2d5652147"><path d="M 94 124.035156 L 109.785156 124.035156 L 109.785156 132 L 94 132 Z M 94 124.035156 " clip-rule="nonzero"/></clipPath><clipPath id="457c074d43"><path d="M 98.832031 130 L 109.785156 130 L 109.785156 148.035156 L 98.832031 148.035156 Z M 98.832031 130 " clip-rule="nonzero"/></clipPath><clipPath id="5e18f92e10"><path d="M 91.828125 120.667969 L 105.328125 120.667969 L 105.328125 134.167969 L 91.828125 134.167969 Z M 91.828125 120.667969 " clip-rule="nonzero"/></clipPath><clipPath id="058c75f30c"><path d="M 16.535156 120.667969 L 30.035156 120.667969 L 30.035156 134.167969 L 16.535156 134.167969 Z M 16.535156 120.667969 " clip-rule="nonzero"/></clipPath></defs><g clip-path="url(#c3edf42f67)"><path fill="#050a2f" d="M 108.660156 193.179688 C 108.59375 193.433594 108.402344 193.582031 108.191406 193.621094 C 107.90625 193.675781 107.589844 193.539062 107.488281 193.199219 C 106.777344 190.871094 105.128906 187.40625 101.566406 186.921875 C 96.121094 186.167969 90.6875 194.65625 80.792969 193.625 C 75.324219 193.042969 72.960938 192.109375 71.949219 191.382812 C 71.710938 191.210938 71.417969 191.226562 71.210938 191.375 C 71.066406 191.476562 70.964844 191.644531 70.960938 191.855469 C 70.917969 194.167969 72.0625 198.671875 80.566406 201.808594 C 86.089844 203.84375 90.378906 209.085938 88.539062 215.203125 C 87.414062 218.949219 84.050781 221.523438 80.070312 220.761719 C 78.160156 220.402344 76.449219 219.316406 75.25 217.796875 C 75.085938 217.59375 75.082031 217.34375 75.183594 217.144531 C 75.289062 216.945312 75.5 216.746094 75.753906 216.800781 C 80.1875 217.789062 82.785156 216.535156 83 213.339844 C 83.222656 209.839844 78.273438 207.902344 73.050781 205.902344 C 68.757812 204.261719 64.144531 200.261719 62.601562 194.472656 C 62.535156 194.21875 62.339844 194.0625 62.125 194.019531 C 61.867188 193.964844 61.585938 194.070312 61.457031 194.359375 C 59.898438 197.898438 55.59375 200.296875 52.125 204.171875 C 45.472656 211.59375 48.0625 220.277344 52.449219 220.675781 C 56.90625 221.082031 56.519531 217.132812 56.390625 215.695312 C 56.363281 215.457031 56.472656 215.25 56.640625 215.125 C 56.808594 215.003906 57.039062 214.96875 57.253906 215.078125 C 59.734375 216.300781 60.617188 219.160156 59.988281 221.757812 C 59.242188 224.832031 56.523438 226.820312 53.421875 226.953125 C 53.375 226.953125 53.328125 226.957031 53.28125 226.957031 C 51.148438 227.019531 48.949219 226.550781 47.023438 225.632812 C 46.21875 225.246094 45.460938 224.792969 44.824219 224.164062 C 42.070312 221.457031 41.046875 217.101562 41.046875 213.34375 C 41.046875 209.363281 42.25 205.429688 44.25 202.003906 C 44.753906 201.136719 45.316406 200.296875 45.921875 199.5 C 47.613281 197.265625 49.515625 195.214844 50.285156 192.441406 C 50.359375 192.179688 50.261719 191.953125 50.089844 191.808594 C 49.882812 191.640625 49.617188 191.6875 49.316406 191.804688 C 42.308594 194.476562 32.359375 207.167969 20.785156 204.199219 C 12.664062 202.113281 14.988281 195.992188 16.253906 193.6875 C 16.363281 193.480469 16.566406 193.378906 16.773438 193.375 C 16.980469 193.371094 17.207031 193.476562 17.324219 193.6875 C 18.539062 195.839844 21.980469 200.652344 27.335938 197.351562 C 32.066406 194.441406 35.742188 190.386719 41.25 187.417969 C 41.484375 187.289062 41.492188 187.015625 41.402344 186.832031 C 41.308594 186.648438 41.097656 186.515625 40.84375 186.585938 C 38.109375 187.378906 34.652344 187.746094 31.136719 186.472656 C 23.316406 183.652344 25.3125 177.183594 19.683594 176.683594 C 16.109375 176.363281 13.484375 179.652344 13.21875 182.671875 C 13.195312 182.976562 12.976562 183.167969 12.730469 183.214844 C 12.484375 183.261719 12.207031 183.171875 12.0625 182.902344 C 11.914062 182.605469 11.773438 182.296875 11.648438 181.976562 C 10.605469 179.203125 11.4375 176.628906 13.320312 174.339844 C 15.03125 172.261719 17.890625 170.964844 20.578125 170.976562 C 23.152344 170.984375 25.46875 172.050781 27.414062 173.652344 C 28.988281 174.945312 30.101562 176.742188 31.722656 177.96875 C 34.335938 179.914062 37.910156 179.699219 40.914062 178.96875 C 40.917969 178.964844 40.925781 178.964844 40.933594 178.964844 C 41.226562 178.894531 41.339844 178.609375 41.265625 178.371094 C 41.222656 178.230469 41.113281 178.101562 40.9375 178.050781 C 39.664062 177.699219 38.433594 177.183594 37.527344 176.636719 C 35.261719 175.28125 33.613281 173.226562 31.800781 171.355469 C 30.453125 169.964844 28.277344 168.421875 26.246094 168.429688 C 25.9375 168.429688 25.492188 168.5 25.105469 168.574219 C 24.921875 168.605469 24.757812 168.535156 24.660156 168.414062 C 24.558594 168.289062 24.515625 168.113281 24.578125 167.945312 C 24.589844 167.910156 24.605469 167.878906 24.617188 167.851562 C 24.648438 167.773438 24.675781 167.714844 24.683594 167.683594 C 24.695312 167.671875 24.695312 167.667969 24.703125 167.648438 C 24.734375 167.570312 24.769531 167.511719 24.789062 167.484375 C 25.144531 166.957031 25.59375 166.585938 26.09375 166.351562 C 27.8125 165.511719 30.15625 166.167969 31.769531 167.070312 C 33.613281 168.113281 35.742188 169.921875 37.503906 171.097656 C 39.40625 172.363281 41.300781 173.796875 43.511719 174.484375 C 44.304688 174.734375 45.140625 174.859375 45.972656 174.816406 C 46.441406 174.796875 47.835938 174.765625 47.929688 174.113281 C 48 173.574219 47.933594 173.011719 47.730469 172.46875 C 45.503906 166.519531 36.863281 163.3125 38.351562 148.125 C 39.835938 132.9375 54.503906 127.503906 66.859375 129.070312 C 79.226562 130.632812 88.6875 142.25 86.445312 153.710938 C 84.21875 165.175781 78.179688 169.492188 76.175781 171.28125 C 75.335938 172.023438 74.425781 173.140625 73.433594 174.191406 C 72.515625 175.167969 72.636719 175.90625 73.1875 175.679688 C 74.316406 175.234375 77.210938 174.5625 78.882812 174.492188 C 87.347656 174.136719 95.167969 172.402344 91.945312 167.894531 C 91.613281 167.429688 91.210938 167.3125 91.007812 167.167969 C 90.808594 167.035156 90.777344 166.792969 90.867188 166.601562 C 90.933594 166.460938 91.066406 166.347656 91.246094 166.328125 C 92.527344 166.203125 94.066406 166.472656 94.792969 168.203125 C 96.144531 171.441406 95.527344 173.914062 92.507812 175.726562 C 85.914062 179.683594 76.015625 178.445312 73.589844 181.757812 C 73.574219 181.777344 73.554688 181.800781 73.550781 181.816406 C 73.480469 181.921875 73.480469 182.023438 73.542969 182.125 C 76.230469 186.289062 84.414062 187.550781 90.519531 183.980469 C 96.621094 180.394531 103.140625 179.257812 107.164062 183.582031 C 109.890625 186.5 109.367188 190.46875 108.660156 193.175781 Z M 108.660156 193.179688 " fill-opacity="1" fill-rule="nonzero"/></g><g clip-path="url(#90f990d89a)"><path fill="#8d1b29" d="M 17.359375 140.6875 C 17.273438 140.882812 17.042969 141 16.84375 141 C 16.757812 141 16.675781 140.972656 16.589844 140.941406 L 13.363281 139.375 C 13.335938 139.347656 13.308594 139.347656 13.277344 139.316406 C 13.25 139.289062 13.222656 139.289062 13.222656 139.261719 L 13.195312 139.230469 C 13.050781 139.058594 12.996094 138.804688 13.109375 138.605469 C 13.25 138.316406 13.59375 138.207031 13.878906 138.347656 L 15.363281 139.058594 L 17.101562 139.917969 C 17.386719 140.058594 17.5 140.402344 17.359375 140.6875 Z M 15.816406 142.453125 C 15.730469 142.652344 15.503906 142.769531 15.304688 142.769531 C 15.21875 142.769531 15.132812 142.738281 15.046875 142.710938 L 13.363281 141.910156 C 13.082031 141.769531 12.964844 141.425781 13.109375 141.144531 C 13.25 140.855469 13.59375 140.742188 13.878906 140.882812 L 15.5625 141.683594 C 15.84375 141.828125 15.960938 142.167969 15.816406 142.453125 Z M 11.910156 129.734375 L 11.910156 133.386719 L 6.804688 133.386719 C 6.492188 133.386719 6.234375 133.640625 6.234375 133.957031 C 6.234375 134.269531 6.492188 134.527344 6.804688 134.527344 L 11.910156 134.527344 L 11.910156 135.667969 L 9.113281 135.667969 C 8.800781 135.667969 8.546875 135.921875 8.546875 136.238281 C 8.546875 136.550781 8.800781 136.808594 9.113281 136.808594 L 11.910156 136.808594 L 11.910156 137.949219 L 10.828125 137.949219 C 10.511719 137.949219 10.257812 138.203125 10.257812 138.519531 C 10.257812 138.832031 10.511719 139.085938 10.828125 139.085938 L 11.910156 139.085938 L 11.910156 142.253906 C 11.910156 142.398438 11.996094 142.539062 12.136719 142.59375 L 22.773438 147.730469 L 22.777344 134.953125 L 11.910156 129.734375 " fill-opacity="1" fill-rule="nonzero"/></g><g clip-path="url(#26730957d7)"><path fill="#8d1b29" d="M 30.191406 130.675781 L 34.097656 128.792969 L 23.691406 123.746094 C 23.457031 123.628906 23.234375 123.628906 23.003906 123.746094 L 19.4375 125.457031 L 30.191406 130.675781 " fill-opacity="1" fill-rule="nonzero"/></g><path fill="#8d1b29" d="M 16.414062 126.910156 L 12.566406 128.765625 L 23.34375 133.984375 L 27.195312 132.101562 L 16.414062 126.910156 " fill-opacity="1" fill-rule="nonzero"/><g clip-path="url(#c27d88b67d)"><path fill="#8d1b29" d="M 30.847656 131.617188 L 30.847656 135.351562 C 30.847656 135.492188 30.761719 135.636719 30.617188 135.695312 L 28.136719 136.894531 C 27.996094 136.949219 27.851562 136.863281 27.851562 136.722656 L 27.851562 133.042969 L 23.917969 134.953125 L 23.917969 147.703125 L 34.554688 142.566406 C 34.695312 142.511719 34.78125 142.367188 34.78125 142.226562 L 34.78125 129.734375 L 30.847656 131.617188 " fill-opacity="1" fill-rule="nonzero"/></g><g clip-path="url(#a727a242c6)"><path fill="#8d1b29" d="M 92.4375 141.0625 C 92.351562 141.261719 92.125 141.375 91.921875 141.375 C 91.835938 141.375 91.753906 141.347656 91.667969 141.320312 L 88.441406 139.75 C 88.414062 139.722656 88.386719 139.722656 88.355469 139.691406 C 88.328125 139.664062 88.300781 139.664062 88.300781 139.636719 L 88.273438 139.609375 C 88.128906 139.4375 88.074219 139.179688 88.1875 138.980469 C 88.328125 138.695312 88.671875 138.582031 88.957031 138.722656 L 90.441406 139.4375 L 92.179688 140.292969 C 92.464844 140.433594 92.578125 140.777344 92.4375 141.0625 Z M 90.898438 142.828125 C 90.808594 143.03125 90.582031 143.144531 90.382812 143.144531 C 90.296875 143.144531 90.210938 143.117188 90.125 143.085938 L 88.441406 142.289062 C 88.160156 142.144531 88.046875 141.804688 88.1875 141.519531 C 88.328125 141.234375 88.671875 141.117188 88.957031 141.261719 L 90.640625 142.058594 C 90.925781 142.203125 91.039062 142.546875 90.898438 142.828125 Z M 86.988281 130.109375 L 86.988281 133.761719 L 81.882812 133.761719 C 81.570312 133.761719 81.3125 134.015625 81.3125 134.332031 C 81.3125 134.644531 81.570312 134.902344 81.882812 134.902344 L 86.988281 134.902344 L 86.988281 136.042969 L 84.191406 136.042969 C 83.882812 136.042969 83.625 136.296875 83.625 136.613281 C 83.625 136.925781 83.882812 137.183594 84.191406 137.183594 L 86.988281 137.183594 L 86.988281 138.324219 L 85.90625 138.324219 C 85.59375 138.324219 85.335938 138.578125 85.335938 138.894531 C 85.335938 139.207031 85.59375 139.464844 85.90625 139.464844 L 86.988281 139.464844 L 86.988281 142.628906 C 86.988281 142.773438 87.074219 142.914062 87.214844 142.972656 L 97.851562 148.105469 L 97.855469 135.332031 L 86.988281 130.109375 " fill-opacity="1" fill-rule="nonzero"/></g><g clip-path="url(#a2d5652147)"><path fill="#8d1b29" d="M 105.269531 131.050781 L 109.175781 129.167969 L 98.769531 124.121094 C 98.539062 124.007812 98.3125 124.007812 98.082031 124.121094 L 94.519531 125.835938 L 105.269531 131.050781 " fill-opacity="1" fill-rule="nonzero"/></g><path fill="#8d1b29" d="M 91.496094 127.285156 L 87.644531 129.140625 L 98.421875 134.359375 L 102.277344 132.480469 L 91.496094 127.285156 " fill-opacity="1" fill-rule="nonzero"/><g clip-path="url(#457c074d43)"><path fill="#8d1b29" d="M 105.925781 131.992188 L 105.925781 135.726562 C 105.925781 135.871094 105.839844 136.015625 105.695312 136.070312 L 103.214844 137.269531 C 103.074219 137.324219 102.933594 137.242188 102.933594 137.097656 L 102.933594 133.417969 L 98.996094 135.332031 L 98.996094 148.078125 L 109.632812 142.945312 C 109.773438 142.886719 109.859375 142.742188 109.859375 142.601562 L 109.859375 130.109375 L 105.925781 131.992188 " fill-opacity="1" fill-rule="nonzero"/></g><g clip-path="url(#5e18f92e10)"><path fill="#8d1b29" d="M 105.503906 127.503906 C 105.503906 127.953125 105.460938 128.398438 105.375 128.839844 C 105.285156 129.28125 105.15625 129.707031 104.984375 130.121094 C 104.8125 130.539062 104.601562 130.929688 104.351562 131.304688 C 104.105469 131.679688 103.820312 132.023438 103.503906 132.339844 C 103.183594 132.660156 102.839844 132.941406 102.464844 133.191406 C 102.09375 133.441406 101.699219 133.652344 101.285156 133.824219 C 100.871094 133.996094 100.441406 134.125 100 134.210938 C 99.5625 134.300781 99.117188 134.34375 98.667969 134.34375 C 98.21875 134.34375 97.773438 134.300781 97.332031 134.210938 C 96.894531 134.125 96.464844 133.996094 96.050781 133.824219 C 95.636719 133.652344 95.242188 133.441406 94.867188 133.191406 C 94.496094 132.941406 94.148438 132.660156 93.832031 132.339844 C 93.515625 132.023438 93.230469 131.679688 92.980469 131.304688 C 92.734375 130.929688 92.523438 130.539062 92.351562 130.121094 C 92.179688 129.707031 92.046875 129.28125 91.960938 128.839844 C 91.875 128.398438 91.828125 127.953125 91.828125 127.503906 C 91.828125 127.058594 91.875 126.613281 91.960938 126.171875 C 92.046875 125.730469 92.179688 125.304688 92.351562 124.890625 C 92.523438 124.472656 92.734375 124.078125 92.980469 123.707031 C 93.230469 123.332031 93.515625 122.988281 93.832031 122.671875 C 94.148438 122.351562 94.496094 122.070312 94.867188 121.820312 C 95.242188 121.570312 95.636719 121.359375 96.050781 121.1875 C 96.464844 121.015625 96.894531 120.886719 97.332031 120.800781 C 97.773438 120.710938 98.21875 120.667969 98.667969 120.667969 C 99.117188 120.667969 99.5625 120.710938 100 120.800781 C 100.441406 120.886719 100.871094 121.015625 101.285156 121.1875 C 101.699219 121.359375 102.09375 121.570312 102.464844 121.820312 C 102.839844 122.070312 103.183594 122.351562 103.503906 122.671875 C 103.820312 122.988281 104.105469 123.332031 104.351562 123.707031 C 104.601562 124.078125 104.8125 124.472656 104.984375 124.890625 C 105.15625 125.304688 105.285156 125.730469 105.375 126.171875 C 105.460938 126.613281 105.503906 127.058594 105.503906 127.503906 Z M 105.503906 127.503906 " fill-opacity="1" fill-rule="nonzero"/></g><path fill="#f2f2f2" d="M 102.421875 126.214844 C 102.789062 125.847656 102.789062 125.253906 102.421875 124.886719 C 102.054688 124.523438 101.460938 124.523438 101.097656 124.890625 L 97.851562 128.132812 L 96.234375 126.515625 C 95.867188 126.148438 95.273438 126.148438 94.90625 126.515625 C 94.539062 126.878906 94.539062 127.472656 94.90625 127.839844 L 97.1875 130.121094 C 97.367188 130.296875 97.605469 130.398438 97.851562 130.398438 C 98.101562 130.398438 98.339844 130.296875 98.515625 130.121094 Z M 102.421875 126.214844 " fill-opacity="1" fill-rule="nonzero"/><g fill="#050a2f" fill-opacity="1"><g transform="translate(119.173341, 192.573086)"><g><path d="M 9.296875 0.203125 L 12.6875 0.0625 L 13.9375 0.140625 L 15.53125 0 L 16.984375 -0.5625 L 17.609375 -2.015625 L 17.546875 -3.390625 L 17.609375 -4.921875 L 17.46875 -7.484375 L 17.609375 -8.8125 L 17.546875 -10.40625 L 18.171875 -11.65625 L 19.765625 -12.40625 L 21.28125 -12.546875 L 22.75 -12.28125 L 29.890625 -12.828125 L 36.46875 -15.46875 L 37.515625 -16.296875 L 38.484375 -17.40625 L 39.390625 -18.3125 L 40.28125 -19.34375 L 41.75 -21.5625 L 42.921875 -24.265625 L 43.125 -25.796875 L 43.546875 -26.90625 L 43.6875 -32.59375 L 43.40625 -33.765625 L 43.203125 -35.296875 L 42.375 -37.859375 L 41.046875 -40.21875 L 39.390625 -42.5 L 36.265625 -45.21875 L 33.984375 -46.734375 L 31.203125 -47.5625 L 30.03125 -48.0625 L 28.640625 -48.0625 L 27.25 -48.546875 L 25.171875 -48.609375 L 22.953125 -48.546875 L 21.421875 -48.328125 L 17.203125 -48.40625 L 15.8125 -48.609375 L 11.515625 -48.328125 L 9.984375 -48.40625 L 8.734375 -48.609375 L 7.28125 -48.328125 L 5.828125 -47.5625 L 5.203125 -46.453125 L 5.265625 -38.0625 L 5 -35.296875 L 5.125 -33.984375 L 5.0625 -16.015625 L 5.203125 -14.703125 L 5.125 -1.875 L 5.890625 -0.5625 L 8.046875 0.140625 Z M 19.6875 -23.5 L 18.3125 -24.34375 L 17.6875 -25.515625 L 17.46875 -31.140625 L 17.609375 -32.59375 L 17.609375 -35.4375 L 18.3125 -36.75 L 19.765625 -37.453125 L 26.96875 -37.234375 L 28.359375 -36.609375 L 29.46875 -35.84375 L 30.375 -34.953125 L 31.0625 -33.5625 L 31.28125 -32.3125 L 31.40625 -30.375 L 31.28125 -28.5 L 30.78125 -27.25 L 30.171875 -26.140625 L 29.265625 -25.03125 L 28.15625 -24.203125 L 27.046875 -23.859375 L 24.890625 -23.578125 L 21.359375 -23.640625 Z M 19.6875 -23.5 "/></g></g></g><g fill="#050a2f" fill-opacity="1"><g transform="translate(164.79125, 192.573086)"><g><path d="M 16.984375 -1.53125 L 18.09375 -0.28125 L 19.625 0.625 L 22.265625 0.5625 L 23.78125 0 L 24.890625 -1.453125 L 25.515625 -2.640625 L 25.9375 -4.15625 L 26.625 -5.40625 L 26.96875 -6.59375 L 27.59375 -8.046875 L 27.953125 -9.15625 L 30.09375 -14.28125 L 30.515625 -15.734375 L 31.765625 -18.375 L 32.65625 -21.078125 L 33.359375 -20.875 L 34.046875 -19.6875 L 34.46875 -18.234375 L 35.640625 -15.875 L 39.59375 -5.203125 L 40.640625 -2.90625 L 41.046875 -1.59375 L 42.375 -0.140625 L 43.96875 0.6875 L 45.28125 0.625 L 46.453125 0.421875 L 48.125 -0.140625 L 49.171875 -1.390625 L 49.578125 -2.703125 L 50.203125 -3.953125 L 54.359375 -16.015625 L 54.984375 -17.203125 L 57.28125 -23.09375 L 57.828125 -25.03125 L 58.453125 -26.28125 L 58.734375 -27.453125 L 63.171875 -39.25 L 63.515625 -40.78125 L 64.21875 -42.015625 L 65.53125 -46.25 L 65.109375 -47.921875 L 63.734375 -48.265625 L 62.34375 -48.46875 L 59.90625 -48.328125 L 57.140625 -48.46875 L 55.6875 -48.328125 L 54.359375 -48.546875 L 52.90625 -47.84375 L 51.734375 -46.390625 L 51.390625 -45.078125 L 50.765625 -43.890625 L 46.953125 -31.6875 L 46.671875 -30.296875 L 45.765625 -27.390625 L 45.28125 -24.484375 L 44.859375 -23.15625 L 44.171875 -23.234375 L 42.78125 -27.1875 L 42.4375 -28.5625 L 39.453125 -36.40625 L 38.765625 -39.046875 L 38.203125 -40.359375 L 37.375 -43.125 L 36.828125 -44.3125 L 36.265625 -45.5625 L 35.296875 -46.953125 L 33.84375 -47.78125 L 32.3125 -47.78125 L 30.921875 -47.078125 L 29.75 -45.703125 L 27.453125 -38.828125 L 26.421875 -36.34375 L 23.921875 -28.296875 L 23.234375 -27.25 L 22.953125 -25.796875 L 21.90625 -23.15625 L 21.359375 -23.09375 L 21.078125 -24.75 L 16.640625 -39.875 L 16.09375 -41.046875 L 15.25 -43.75 L 14.984375 -45.140625 L 14.421875 -46.53125 L 13.171875 -47.640625 L 11.859375 -48.265625 L 6.3125 -48.328125 L 5.0625 -48.609375 L 3.8125 -48.40625 L 2.359375 -48.328125 L 0.90625 -47.921875 L 0.625 -46.328125 L 0.96875 -44.453125 L 3.890625 -36.546875 L 4.5 -35.359375 L 7.34375 -27.59375 L 7.765625 -26.078125 L 9.703125 -20.875 L 10.328125 -19.765625 L 15.953125 -4.015625 L 16.578125 -2.703125 Z M 16.984375 -1.53125 "/></g></g></g><g fill="#050a2f" fill-opacity="1"><g transform="translate(230.93028, 192.573086)"><g><path d="M 24.125 0.203125 L 34.046875 0.0625 L 35.5 -0.5625 L 36.265625 -2.015625 L 36.265625 -9.015625 L 35.5 -10.40625 L 34.046875 -11.03125 L 32.453125 -10.890625 L 31.140625 -11.09375 L 27.59375 -11.171875 L 25.3125 -10.890625 L 23.921875 -11.03125 L 22.390625 -10.953125 L 21.078125 -11.171875 L 19.5625 -11.03125 L 18.09375 -11.71875 L 17.546875 -12.96875 L 17.546875 -17.34375 L 18.171875 -18.796875 L 19.421875 -19.5625 L 21.5 -19.625 L 23.71875 -19.421875 L 26.34375 -19.5625 L 29.1875 -19.484375 L 30.578125 -19.625 L 32.171875 -19.5625 L 33.5625 -20.109375 L 34.046875 -21.5 L 34.25 -27.734375 L 33.5625 -29.671875 L 31.96875 -30.578125 L 27.875 -30.578125 L 26.421875 -30.4375 L 23.5 -30.65625 L 19.484375 -30.515625 L 18.03125 -31.140625 L 17.46875 -33.28125 L 17.46875 -35.4375 L 18.09375 -36.75 L 19.625 -37.3125 L 20.9375 -37.234375 L 22.265625 -37.515625 L 32.171875 -37.375 L 33.5 -37.453125 L 34.953125 -38.28125 L 35.640625 -39.53125 L 35.578125 -40.90625 L 35.640625 -42.296875 L 35.5 -46.453125 L 34.875 -47.78125 L 33.5 -48.328125 L 32.03125 -48.328125 L 30.78125 -48.609375 L 25.171875 -48.546875 L 23.640625 -48.40625 L 22.265625 -48.546875 L 21.078125 -48.46875 L 19.6875 -48.609375 L 14 -48.46875 L 12.625 -48.671875 L 11.296875 -48.40625 L 10.0625 -48.546875 L 8.671875 -48.40625 L 7.28125 -48.46875 L 5.828125 -47.921875 L 5.0625 -46.453125 L 5.203125 -43.828125 L 5 -40.984375 L 5.203125 -39.453125 L 5.0625 -32.65625 L 5.265625 -31.203125 L 5.125 -29.890625 L 5.0625 -24.203125 L 5.265625 -22.953125 L 5.203125 -11.71875 L 5.0625 -10.40625 L 5.265625 -9.015625 L 5.0625 -4.234375 L 5.203125 -2.703125 L 5.75 -0.828125 L 7.828125 0.0625 L 12.828125 0.140625 L 14.359375 0 L 15.609375 0.0625 L 18.453125 -0.140625 L 19.765625 0.140625 L 21.359375 0.203125 L 22.75 0.0625 Z M 24.125 0.203125 "/></g></g></g><g fill="#050a2f" fill-opacity="1"><g transform="translate(270.655295, 192.573086)"><g><path d="M 1.734375 -1.875 L 2.015625 -0.421875 L 3.390625 0.203125 L 18.65625 0.28125 L 20.171875 0 L 21.5 0.0625 L 22.671875 0.28125 L 24.125 0.140625 L 25.59375 0.140625 L 26.96875 -0.0625 L 28.296875 0.203125 L 29.8125 0.0625 L 36.828125 0.0625 L 38.0625 -0.0625 L 39.453125 -0.765625 L 40.15625 -1.9375 L 40.078125 -3.328125 L 40.21875 -4.78125 L 40.21875 -7.703125 L 40.078125 -8.953125 L 39.53125 -10.265625 L 38.0625 -10.953125 L 36.46875 -11.03125 L 35.015625 -10.953125 L 33.703125 -11.09375 L 26.5625 -11.171875 L 25.3125 -11.03125 L 23.859375 -11.09375 L 22.46875 -11.03125 L 21.28125 -11.71875 L 21.15625 -12.890625 L 21.984375 -13.9375 L 22.671875 -15.1875 L 23.234375 -16.640625 L 23.921875 -17.75 L 24.609375 -19.140625 L 25.65625 -20.734375 L 28.640625 -26.34375 L 29.46875 -27.53125 L 31.546875 -31.484375 L 32.171875 -32.390625 L 33.421875 -35.09375 L 34.25 -36.265625 L 39.671875 -46.328125 L 39.171875 -47.84375 L 37.796875 -48.328125 L 36.46875 -48.46875 L 32.390625 -48.328125 L 30.578125 -48.546875 L 20.3125 -48.46875 L 18.9375 -48.671875 L 17.46875 -48.46875 L 12.0625 -48.46875 L 10.609375 -48.609375 L 9.359375 -48.46875 L 6.453125 -48.46875 L 5.125 -48.609375 L 4.015625 -47.921875 L 3.125 -46.453125 L 3.265625 -45 L 3.1875 -39.3125 L 3.953125 -38 L 6.03125 -37.453125 L 8.046875 -37.453125 L 9.4375 -37.234375 L 10.75 -37.453125 L 19.0625 -37.375 L 19.96875 -36.75 L 19.828125 -35.4375 L 11.296875 -19.625 L 10.46875 -18.375 L 9.21875 -15.875 L 8.390625 -14.765625 L 7.140625 -12.140625 L 5.6875 -9.84375 L 3.890625 -6.171875 L 2.984375 -4.921875 L 2.28125 -3.53125 Z M 1.734375 -1.875 "/></g></g></g><g fill="#050a2f" fill-opacity="1"><g transform="translate(313.430744, 192.573086)"><g><path d="M 40.90625 0.140625 L 43.546875 -0.0625 L 44.859375 0.0625 L 47.015625 0 L 48.953125 -0.34375 L 49.171875 -2.015625 L 48.671875 -3.609375 L 47.640625 -6.171875 L 45.765625 -9.78125 L 44.796875 -12.34375 L 43.40625 -14.84375 L 40.78125 -21.15625 L 40.078125 -22.1875 L 39.390625 -23.5 L 38.96875 -25.03125 L 38.34375 -26.078125 L 37.9375 -27.1875 L 36.46875 -29.75 L 35.984375 -31.203125 L 31.40625 -40.84375 L 31 -42.234375 L 30.234375 -43.484375 L 29.8125 -44.734375 L 28.5 -47.15625 L 27.328125 -48.40625 L 25.03125 -49.09375 L 22.8125 -48.328125 L 21.5625 -47.15625 L 20.9375 -45.96875 L 20.453125 -44.59375 L 19.828125 -43.625 L 17.0625 -37.234375 L 16.296875 -36.203125 L 15.953125 -34.8125 L 15.1875 -33.5 L 14.765625 -32.25 L 7.703125 -17.40625 L 7.28125 -15.875 L 6.59375 -14.84375 L 6.109375 -13.453125 L 4.859375 -11.234375 L 3.8125 -8.453125 L 3.046875 -7.484375 L 2.703125 -6.234375 L 1.3125 -3.46875 L 0.90625 -2.078125 L 1.25 -0.34375 L 2.640625 0.0625 L 5.34375 -0.0625 L 6.71875 0.0625 L 10.609375 -0.0625 L 12.203125 -0.5625 L 13.515625 -1.796875 L 14.765625 -4.09375 L 16.09375 -5.40625 L 17.546875 -6.171875 L 18.859375 -5.96875 L 21.78125 -6.234375 L 23.015625 -6.03125 L 29.8125 -6.109375 L 31.0625 -5.96875 L 32.59375 -6.171875 L 34.109375 -5.40625 L 35.4375 -4.296875 L 36.0625 -2.984375 L 36.46875 -1.734375 L 37.859375 -0.6875 L 39.453125 0 Z M 25.171875 -17.125 L 23.78125 -17.40625 L 22.1875 -17.265625 L 21.078125 -17.75 L 21.015625 -19.0625 L 24.265625 -26.5625 L 25.03125 -27.1875 L 26 -26.625 L 29.265625 -19 L 28.984375 -17.75 L 27.953125 -17.203125 Z M 25.171875 -17.125 "/></g></g></g><g clip-path="url(#058c75f30c)"><path fill="#8d1b29" d="M 30.210938 127.503906 C 30.210938 127.953125 30.167969 128.398438 30.078125 128.839844 C 29.992188 129.28125 29.863281 129.707031 29.691406 130.121094 C 29.519531 130.539062 29.308594 130.929688 29.058594 131.304688 C 28.808594 131.679688 28.523438 132.023438 28.207031 132.339844 C 27.890625 132.660156 27.542969 132.941406 27.171875 133.191406 C 26.796875 133.441406 26.402344 133.652344 25.988281 133.824219 C 25.574219 133.996094 25.148438 134.125 24.707031 134.210938 C 24.265625 134.300781 23.820312 134.34375 23.371094 134.34375 C 22.921875 134.34375 22.480469 134.300781 22.039062 134.210938 C 21.597656 134.125 21.171875 133.996094 20.757812 133.824219 C 20.339844 133.652344 19.945312 133.441406 19.574219 133.191406 C 19.199219 132.941406 18.855469 132.660156 18.539062 132.339844 C 18.21875 132.023438 17.9375 131.679688 17.6875 131.304688 C 17.4375 130.929688 17.226562 130.539062 17.054688 130.121094 C 16.882812 129.707031 16.753906 129.28125 16.667969 128.839844 C 16.578125 128.398438 16.535156 127.953125 16.535156 127.503906 C 16.535156 127.058594 16.578125 126.613281 16.667969 126.171875 C 16.753906 125.730469 16.882812 125.304688 17.054688 124.890625 C 17.226562 124.472656 17.4375 124.078125 17.6875 123.707031 C 17.9375 123.332031 18.21875 122.988281 18.539062 122.671875 C 18.855469 122.351562 19.199219 122.070312 19.574219 121.820312 C 19.945312 121.570312 20.339844 121.359375 20.757812 121.1875 C 21.171875 121.015625 21.597656 120.886719 22.039062 120.800781 C 22.480469 120.710938 22.921875 120.667969 23.371094 120.667969 C 23.820312 120.667969 24.265625 120.710938 24.707031 120.800781 C 25.148438 120.886719 25.574219 121.015625 25.988281 121.1875 C 26.402344 121.359375 26.796875 121.570312 27.171875 121.820312 C 27.542969 122.070312 27.890625 122.351562 28.207031 122.671875 C 28.523438 122.988281 28.808594 123.332031 29.058594 123.707031 C 29.308594 124.078125 29.519531 124.472656 29.691406 124.890625 C 29.863281 125.304688 29.992188 125.730469 30.078125 126.171875 C 30.167969 126.613281 30.210938 127.058594 30.210938 127.503906 Z M 30.210938 127.503906 " fill-opacity="1" fill-rule="nonzero"/></g><path fill="#f2f2f2" d="M 27.128906 126.214844 C 27.492188 125.847656 27.492188 125.253906 27.125 124.886719 C 26.761719 124.523438 26.167969 124.523438 25.800781 124.890625 L 22.558594 128.132812 L 20.9375 126.515625 C 20.570312 126.148438 19.976562 126.148438 19.613281 126.515625 C 19.246094 126.878906 19.246094 127.472656 19.613281 127.839844 L 21.894531 130.121094 C 22.070312 130.296875 22.308594 130.398438 22.558594 130.398438 C 22.804688 130.398438 23.042969 130.296875 23.21875 130.121094 Z M 27.128906 126.214844 " fill-opacity="1" fill-rule="nonzero"/></svg>